<svg width="1437" height="224" viewBox="0 0 1437 224" fill="none" xmlns="http://www.w3.org/2000/svg">
<path d="M0 0L40 32C80 64 160 128 240 128C320 128 400 64 480 58.7C560 53 640 107 720 106.7C800 107 880 53 960 64C1040 75 1120 149 1200 154.7C1280 160 1360 96 1400 64L1440 32V224H1400C1360 224 1280 224 1200 224C1120 224 1040 224 960 224C880 224 800 224 720 224C640 224 560 224 480 224C400 224 320 224 240 224C160 224 80 224 40 224H0V0Z" fill="url(#paint0_linear_34_178)"/>
<defs>
<linearGradient id="paint0_linear_34_178" x1="720" y1="0" x2="720" y2="224" gradientUnits="userSpaceOnUse">
<stop stop-opacity="0.39"/>
<stop offset="1" stop-color="#9F46B1" stop-opacity="0"/>
</linearGradient>
</defs>
</svg>
